<?xml version="1.0" encoding="UTF-8"?>
<svg id="Camada_1" xmlns="http://www.w3.org/2000/svg" version="1.1" viewBox="0 0 633.4 120">
  <!-- Generator: Adobe Illustrator 30.4.0, SVG Export Plug-In . SVG Version: 2.1.4 Build 226)  -->
  <defs>
    <style>
      .st0 {
        fill: #aa72e2;
      }
    </style>
  </defs>
  <path class="st0" d="M44.9,94.4c-7,0-13.2-1.3-18.7-3.9s-9.8-6.2-12.9-10.8c-3.1-4.6-4.7-10.1-4.7-16.3s1.5-11.4,4.5-16c3-4.6,7.1-8.2,12.4-10.7,5.3-2.6,11.3-3.9,18-3.9s12.7,1.5,17.6,4.5c4.9,3,8.7,7.2,11.4,12.7s4,11.9,4,19.2H23.9v-12h42.2l-6.9,4.3c-.2-3.2-1-5.9-2.3-8.1s-3.1-3.9-5.3-5.1c-2.2-1.2-4.8-1.8-7.8-1.8s-6.1.6-8.5,1.9c-2.4,1.3-4.2,3.1-5.6,5.4-1.3,2.3-2,5-2,8.1s.9,7.2,2.6,9.9c1.7,2.7,4.3,4.8,7.6,6.2,3.3,1.4,7.3,2.1,12.1,2.1s8.7-.6,13.1-1.8c4.4-1.2,8.3-2.9,11.8-5.1v12.4c-4,2.7-8.5,4.8-13.6,6.3s-10.6,2.3-16.4,2.3v.2Z"/>
  <path class="st0" d="M146.5,74.1c0,4.4-1.3,8.1-3.8,11.1-2.6,3-6.3,5.3-11.2,6.9s-10.9,2.4-17.9,2.4-13.4-.9-18.8-2.7c-5.4-1.8-9.6-4.3-12.6-7.5s-4.6-6.9-4.8-11.2h19.3c.4,1.7,1.4,3.2,2.9,4.5s3.5,2.3,6,2.9,5.4,1,8.7,1,7.9-.5,10.2-1.4c2.3-1,3.5-2.4,3.5-4.3s-.8-2.5-2.5-3.3-4.7-1.3-9-1.6l-10.6-.8c-6.7-.5-12-1.6-16-3.2s-6.8-3.7-8.4-6.2c-1.7-2.5-2.5-5.4-2.5-8.5s1.3-7.9,4-10.7,6.4-5,11.2-6.4c4.8-1.5,10.4-2.2,16.8-2.2s12.1.9,17.1,2.6c5,1.7,9,4.1,12.1,7.1,3,3,4.8,6.5,5.2,10.5h-19.3c-.3-1.4-1-2.6-2.2-3.8s-2.9-2.1-5.1-2.8c-2.2-.7-5.1-1.1-8.6-1.1s-7.1.4-9.2,1.3c-2.1.9-3.2,2.2-3.2,3.9s.6,2.3,1.9,3.1c1.3.8,3.8,1.3,7.4,1.6l13.8,1c6.5.5,11.7,1.6,15.4,3.1s6.4,3.5,7.9,6c1.6,2.5,2.4,5.4,2.4,8.7h-.1Z"/>
  <path class="st0" d="M147.8,34.5h18.9l3.8,22.7v35.6h-19v-38.5l-3.7-19.8h0ZM191,32.8c5.3,0,9.8,1.1,13.6,3.4,3.7,2.3,6.5,5.4,8.5,9.5,1.9,4.1,2.9,8.9,2.9,14.6v32.5h-19v-29.7c0-4.8-1.1-8.5-3.2-11s-5.2-3.7-9.3-3.7-5.3.7-7.4,2-3.7,3.2-4.8,5.6c-1.1,2.4-1.7,5.3-1.7,8.6l-6-3.2c.7-6.2,2.4-11.4,4.9-15.7,2.5-4.2,5.6-7.5,9.3-9.7,3.7-2.2,7.8-3.3,12.3-3.3h0ZM236.3,32.8c5.3,0,9.9,1.1,13.6,3.4,3.8,2.3,6.6,5.4,8.5,9.5s2.9,8.9,2.9,14.6v32.5h-19v-29.7c0-4.8-1.1-8.5-3.2-11s-5.2-3.7-9.3-3.7-5.3.7-7.4,2-3.7,3.2-4.8,5.6c-1.1,2.4-1.7,5.3-1.7,8.6l-6-3.2c.8-6.2,2.4-11.4,4.8-15.7,2.5-4.2,5.6-7.5,9.3-9.7,3.8-2.2,7.8-3.3,12.3-3.3h0Z"/>
  <path class="st0" d="M325.4,63.6c-1,6.2-3,11.6-5.8,16.2-2.9,4.6-6.5,8.2-10.8,10.7-4.4,2.6-9.3,3.8-14.7,3.8s-10.8-1.3-15.1-3.9c-4.3-2.6-7.7-6.2-10.2-10.8-2.5-4.6-3.7-10-3.7-16.1s1.2-11.5,3.7-16.1,5.8-8.2,10.2-10.8c4.3-2.6,9.4-3.9,15.1-3.9s10.4,1.3,14.7,3.8c4.4,2.6,8,6.1,10.9,10.7,2.9,4.6,4.8,10,5.8,16.3h-.1ZM284.3,63.6c0,3.1.6,5.9,1.9,8.3s3.1,4.3,5.4,5.7c2.3,1.4,4.9,2.1,7.9,2.1s5.8-.7,8.5-2.1,5.1-3.3,7.1-5.7c2-2.4,3.6-5.2,4.6-8.3-1-3.1-2.6-5.9-4.6-8.3-2-2.4-4.4-4.3-7.1-5.7s-5.5-2.1-8.5-2.1-5.6.7-7.9,2.1c-2.3,1.4-4.1,3.3-5.4,5.7s-1.9,5.2-1.9,8.3ZM320.7,92.8l-2.6-21.2,2.8-8-2.8-7.9,2.6-21.3h19.7l-3.6,29.2,3.6,29.2h-19.7Z"/>
  <path class="st0" d="M371.3,87.1c-5.5,0-10.3-1.1-14.6-3.4-4.3-2.3-7.6-5.4-10.1-9.5s-3.7-8.8-3.7-14.3,1.2-10.2,3.7-14.3,5.9-7.2,10.1-9.5c4.3-2.3,9.1-3.4,14.6-3.4s7.8.6,11.3,1.9c3.4,1.3,6.4,2.9,9.1,5,2.7,2,4.9,4.3,6.8,6.7,1.8,2.4,3.2,4.8,4.2,7.3,1,2.4,1.4,4.6,1.4,6.5s-.8,5.3-2.3,8.4-3.7,6.1-6.5,8.9-6.3,5.1-10.3,6.9-8.6,2.7-13.7,2.7h0ZM397.1,78.2v-9.9l.6-2.4v-13.5l-.6-2.1v-15.8h19v42.8c0,7.2-1.7,13.4-5,18.5s-7.9,9-13.8,11.6c-5.9,2.7-12.7,4-20.5,4s-10.4-.7-14.9-2.1-9-3.5-13.5-6.3v-14.5c4.2,3.1,8.6,5.4,13.2,6.8s9.2,2.1,13.9,2.1c6.9,0,12.2-1.6,15.9-4.7s5.5-7.9,5.5-14.5h.2ZM377.7,73.9c4.2,0,8-1.1,11.4-3.4,3.3-2.3,6.2-5.8,8.7-10.5-2.5-4.8-5.4-8.4-8.7-10.6-3.4-2.3-7.1-3.4-11.3-3.4s-6.1.6-8.4,1.7c-2.3,1.2-4.1,2.8-5.4,4.9-1.3,2.1-1.9,4.6-1.9,7.4s.6,5.2,1.8,7.3c1.2,2.1,3,3.7,5.4,4.9,2.4,1.2,5.2,1.7,8.4,1.7h0Z"/>
  <path class="st0" d="M480.7,63.6c-1,6.2-3,11.6-5.8,16.2-2.9,4.6-6.5,8.2-10.8,10.7-4.4,2.6-9.3,3.8-14.7,3.8s-10.8-1.3-15.1-3.9-7.7-6.2-10.2-10.8c-2.5-4.6-3.7-10-3.7-16.1s1.2-11.5,3.7-16.1,5.8-8.2,10.2-10.8c4.3-2.6,9.4-3.9,15.1-3.9s10.4,1.3,14.7,3.8c4.4,2.6,8,6.1,10.9,10.7,2.9,4.6,4.8,10,5.8,16.3h-.1ZM439.6,63.6c0,3.1.6,5.9,1.9,8.3,1.3,2.4,3.1,4.3,5.4,5.7,2.3,1.4,4.9,2.1,7.9,2.1s5.8-.7,8.5-2.1,5.1-3.3,7.1-5.7c2-2.4,3.6-5.2,4.6-8.3-1-3.1-2.6-5.9-4.6-8.3-2-2.4-4.4-4.3-7.1-5.7-2.7-1.4-5.5-2.1-8.5-2.1s-5.6.7-7.9,2.1c-2.3,1.4-4.1,3.3-5.4,5.7-1.3,2.4-1.9,5.2-1.9,8.3ZM476,92.8l-2.6-21.2,2.8-8-2.8-7.9,2.6-21.3h19.7l-3.6,29.2,3.6,29.2h-19.7Z"/>
  <path class="st0" d="M510.1,93.8c-2,0-3.9-.5-5.6-1.4-1.7-1-3-2.3-3.9-3.9-1-1.7-1.4-3.5-1.4-5.6s.5-3.9,1.4-5.5c1-1.6,2.3-2.9,3.9-3.9,1.7-1,3.5-1.5,5.6-1.5s3.9.5,5.5,1.5,2.9,2.3,3.9,3.9,1.4,3.5,1.4,5.5-.5,3.9-1.4,5.6c-1,1.7-2.3,3-3.9,3.9-1.6,1-3.5,1.4-5.5,1.4Z"/>
  <path class="st0" d="M535.4,28.3c-3.3,0-6.1-.9-8.2-2.6s-3.2-4-3.2-6.9,1.1-5.3,3.2-7c2.1-1.7,4.8-2.6,8.2-2.6s6.1.9,8.2,2.6c2,1.7,3.1,4,3.1,7s-1,5.2-3.1,6.9c-2,1.7-4.8,2.6-8.2,2.6ZM525.8,33.6l9.4,1.9,9.5-1.9v59.1h-18.9v-59.1Z"/>
  <path class="st0" d="M585.9,94.4c-7.4,0-13.8-1.3-19.3-3.9s-9.8-6.2-12.9-10.8c-3.1-4.6-4.6-10-4.6-16.1s1.5-11.5,4.6-16.1,7.4-8.2,12.9-10.8,12-3.9,19.3-3.9,13.8,1.3,19.3,3.9c5.5,2.6,9.8,6.2,12.9,10.8,3.1,4.6,4.7,10,4.7,16.2s-1.6,11.4-4.7,16c-3.1,4.6-7.4,8.2-12.9,10.8-5.5,2.6-12,3.9-19.3,3.9ZM586,80.1c3.7,0,6.8-.7,9.5-2,2.6-1.3,4.6-3.2,6-5.7s2.1-5.4,2.1-8.8-.7-6.4-2.1-8.9c-1.4-2.5-3.4-4.4-6-5.7s-5.8-2-9.5-2-6.9.7-9.5,2-4.7,3.2-6.1,5.7c-1.4,2.5-2.1,5.4-2.1,8.9s.7,6.3,2.1,8.8c1.4,2.5,3.5,4.3,6.1,5.7s5.8,2,9.5,2Z"/>
</svg>